<svg xmlns="http://www.w3.org/2000/svg" viewBox="0 0 512 512">
  <rect width="512" height="512" rx="64" fill="#C70851"/>
  <g transform="translate(106, 156) scale(3)">
    <path d="M61.1184 66.6079H51.0826V28.5984H47.3721V70.3594H51.0909V70.3341H61.1268L61.1184 66.6079Z" fill="white"/>
    <path d="M86.1485 51.0737H61.1759V47.3447H89.8088C89.8479 48.0669 89.8674 48.7891 89.8674 49.5198C89.8674 71.9725 71.7136 90.1707 49.3252 90.1707C26.9368 90.1707 8.78027 71.9809 8.78027 49.5169C8.78027 27.053 26.9313 8.86597 49.3224 8.86597C49.9134 8.86597 50.5016 8.87814 51.0871 8.9025V12.6034C50.5016 12.5772 49.9153 12.5641 49.328 12.5641C28.9775 12.5641 12.474 29.11 12.474 49.5169C12.474 69.9239 28.9747 86.4726 49.328 86.4726C69.121 86.4726 85.2899 70.8175 86.1457 51.1777L86.1485 51.0737Z" fill="white"/>
    <circle cx="34.2" cy="34.1" r="6" fill="white"/>
  </g>
</svg>